<!--?xml version="1.0" encoding="utf-8"?-->
<!-- Generator: Adobe Illustrator 24.1.1, SVG Export Plug-In . SVG Version: 6.00 Build 0)  -->
<svg version="1.1" id="_x31_0" xmlns="http://www.w3.org/2000/svg" xmlns:xlink="http://www.w3.org/1999/xlink" x="0px" y="0px" viewBox="0 0 512 512" style="width: 256px; height: 256px; opacity: 1;" xml:space="preserve">
<style type="text/css">
	.st0{fill:#374149;}
</style>
<g>
	<path class="st0" d="M442.258,60.422H356l-8.32-35.824C344.312,10.114,331.574,0,316.707,0H195.269
		c-14.878,0-27.609,10.121-30.965,24.606l-8.324,35.816H69.742c-33.488,0-60.73,27.242-60.73,60.73v31.637
		c0,19.73,16.054,35.778,35.782,35.778h5.102l33.254,290.328C84.992,497.718,100.715,512,119.711,512h272.578
		c19.109,0,34.801-14.18,36.5-32.988l33.312-290.446h5.106c19.726,0,35.782-16.047,35.782-35.778v-31.637
		C502.988,87.664,475.746,60.422,442.258,60.422z M195.269,6.785c-11.703,0-21.718,7.958-24.355,19.352l-2.926,12.586l0,0
		l2.922-12.586C173.547,14.742,183.566,6.785,195.269,6.785z M421.856,182.222l-33.149,289.074H123.246L90.14,182.222H421.856z
		 M324.937,67.207H187.043l8.226-35.418l121.446,0.004L324.937,67.207z M335.281,15.004c-3.172-3.52-7.352-5.992-12.008-7.254
		C327.929,9.012,332.109,11.484,335.281,15.004L335.281,15.004z M49.719,121.152c0-11.042,8.98-20.023,20.023-20.023h372.516
		c11.042,0,20.023,8.981,20.023,20.023v26.711H49.719V121.152z" style="fill: rgb(223, 86, 86);"></path>
	<path class="st0" d="M166.203,389.73h11.446c6.098,0,11.039-4.946,11.039-11.043V254.246c0-6.098-4.942-11.039-11.039-11.039
		h-11.446c-6.098,0-11.039,4.942-11.039,11.039v124.441C155.164,384.785,160.105,389.73,166.203,389.73z" style="fill: rgb(223, 86, 86);"></path>
	<path class="st0" d="M250.269,389.73h11.442c6.098,0,11.043-4.946,11.043-11.043V254.246c0-6.098-4.946-11.039-11.043-11.039
		h-11.442c-6.098,0-11.042,4.942-11.042,11.039v124.441C239.227,384.785,244.172,389.73,250.269,389.73z" style="fill: rgb(223, 86, 86);"></path>
	<path class="st0" d="M334.332,389.73h11.446c6.098,0,11.043-4.946,11.043-11.043V254.246c0-6.098-4.946-11.039-11.043-11.039
		h-11.446c-6.094,0-11.038,4.942-11.038,11.039v124.441C323.293,384.785,328.238,389.73,334.332,389.73z" style="fill: rgb(223, 86, 86);"></path>
</g>
</svg>
